<svg width="18" height="18" viewBox="0 0 18 18" xmlns="http://www.w3.org/2000/svg">
    <g fill-rule="nonzero" fill="none">
        <path fill="#FFF" d="M18 18H0V0h18v9z"/>
        <path d="M18 18v-2.851h-2.17l-1.12-1.235-1.124 1.235h-7.16v-5.76H4.115l2.869-6.491h2.765l.986 2.221V2.898h3.42l.594 1.674.598-1.674H18V0H0v18h18zm-1.807-3.575H18l-2.39-2.534L18 9.385h-1.778l-1.476 1.613-1.462-1.613h-1.807l2.376 2.52-2.376 2.52h1.757l1.483-1.627 1.476 1.627zm.425-2.53L18 13.366v-2.93l-1.382 1.457zm-8.054 1.367v-.784h2.844V11.34H8.564v-.785h2.916V9.39H7.193v5.036h4.287V13.26H8.564v.003zm8.075-4.604H18V3.622h-2.117l-1.13 3.139-1.123-3.14h-2.153v5.037h1.36V5.134l1.297 3.524h1.21l1.295-3.535v3.535zm-6.707 0h1.548L9.256 3.622H7.488L5.263 8.658h1.512l.418-1.008H9.51l.421 1.008zm-.9-2.138H7.664l.684-1.65.684 1.65z" fill="#006FCF"/>
    </g>
</svg>
