<?xml version="1.0" encoding="UTF-8"?>
<svg width="916px" height="297px" viewBox="0 0 916 297" version="1.1" xmlns="http://www.w3.org/2000/svg" xmlns:xlink="http://www.w3.org/1999/xlink">
    <title>Logo_Visa</title>
    <g id="V1.2-Botón-de-Pago-Redirect_Transparente" stroke="none" stroke-width="1" fill="none" fill-rule="evenodd">
        <g id="Logo_Visa" fill="#1434CB" fill-rule="nonzero">
            <path d="M596.624084,0 C531.584416,0 473.46197,33.7350688 473.46197,96.063191 C473.46197,167.541238 576.544521,172.477719 576.544521,208.386491 C576.544521,223.506071 559.229462,237.041022 529.65614,237.041022 C487.686102,237.041022 456.317458,218.12916 456.317458,218.12916 L442.895628,281.025253 C442.895628,281.025253 479.031323,297 527.008084,297 C598.116824,297 654.070765,261.607815 654.070765,198.215321 C654.070765,122.685323 550.560012,117.894734 550.560012,84.5661448 C550.560012,72.7204246 564.773141,59.7433516 594.262104,59.7433516 C627.533355,59.7433516 654.679598,73.4975996 654.679598,73.4975996 L667.815345,12.7513532 C667.815345,12.7513532 638.278705,0 596.624084,0 Z M1.57526327,4.58505518 L0,13.754248 C0,13.754248 27.3626346,18.7650517 52.0066106,28.7618851 C83.7374372,40.2240642 85.9985543,46.8974895 91.3423464,67.6233701 L149.57574,292.271805 L227.640212,292.271805 L347.903035,4.58505518 L270.018278,4.58505518 L192.742354,200.184408 L161.209582,34.3847023 C158.317626,15.409529 143.668961,4.58505518 125.738651,4.58505518 L1.57526327,4.58505518 Z M379.221249,4.58413762 L318.123407,292.270887 L392.392761,292.270887 L453.276044,4.58413762 L379.221249,4.58413762 L379.221249,4.58413762 Z M793.44672,4.58505518 C775.537499,4.58505518 766.049241,14.1799965 759.086174,30.9465991 L650.276561,292.270887 L728.161315,292.270887 L743.229931,248.716075 L838.115246,248.716075 L847.278914,292.270887 L916,292.270887 L856.04739,4.58505518 L793.44672,4.58505518 L793.44672,4.58505518 Z M803.575901,82.308943 L826.662035,190.262815 L764.812323,190.262815 L803.575901,82.308943 Z" id="Shape"></path>
        </g>
    </g>
</svg>