<svg width="26" height="16" viewBox="0 0 26 16" xmlns="http://www.w3.org/2000/svg">
    <g fill-rule="nonzero" fill="none">
        <path fill="#FF5F00" d="M9.478 1.684h7.755v12.632H9.478z"/>
        <path d="M9.874 7.999a7.99 7.99 0 0 1 3.051-6.289 7.98 7.98 0 0 0-10.805.863 8.008 8.008 0 0 0 0 10.854 7.98 7.98 0 0 0 10.805.863 7.99 7.99 0 0 1-3.051-6.291z" fill="#EB001B"/>
        <path d="M25.156 12.99v-.297h.12v-.061h-.288v.061h.114v.298h.054zm.559 0v-.358h-.087l-.102.256-.102-.256h-.087v.359h.063v-.272l.095.233h.065l.094-.233v.272h.06zM25.85 8.001a8 8 0 0 1-4.497 7.195 7.979 7.979 0 0 1-8.428-.907 8.003 8.003 0 0 0 0-12.578 7.979 7.979 0 0 1 8.428-.907A8 8 0 0 1 25.85 8V8z" fill="#F79E1B"/>
    </g>
</svg>
