<svg xmlns="http://www.w3.org/2000/svg" viewBox="0 0 241.14 61"><defs><style>.cls-1{fill:#004481;}.cls-2{fill:#14c8be;}</style></defs><g id="Capa_2" data-name="Capa 2"><g id="Capa_1-2" data-name="Capa 1"><path class="cls-1" d="M67.81,28c0-5.1-1.74-8.31-5.76-8.31-2.29,0-4.36,1.43-5.87,3V33.93c2,1.9,3.58,2.81,6,2.81,3.75,0,5.65-3.21,5.65-8.77M47.18,55.38V12.67h8.33l.67,4.64c2-2.75,4.75-5.28,9.17-5.28,6.76,0,11.46,5.34,11.46,15.88S72.05,43.68,65.23,43.68a11.19,11.19,0,0,1-9.05-4.07V54Z"/><path class="cls-1" d="M100.5,25c-.44-4.3-2.34-6.36-5.7-6.36-2.79,0-5.2,1.89-5.87,6.36ZM79.88,28c0-11.86,8.83-15.93,15-15.93s13.7,3.15,13.7,17v1.38H88.82c.45,5,3.19,7,6.93,7a13.94,13.94,0,0,0,9-3.44l3.35,5.28a19,19,0,0,1-13,4.58c-7.77,0-15.2-4.07-15.2-15.88"/><path class="cls-1" d="M113.25,43.22V12.67h8.33l.67,4.81A12.64,12.64,0,0,1,132.53,12c5,0,8.67,2.58,8.67,8.88v22.3h-8.95V23.84c0-2.75-1-4.18-3.52-4.18s-4.47,1.26-6.48,3V43.22Z"/><path class="cls-2" d="M167.8,28c0-5.1-1.73-8.31-5.75-8.31-2.3,0-4.36,1.43-5.87,3V33.93c1.95,1.9,3.57,2.81,6,2.81,3.74,0,5.64-3.21,5.64-8.77M147.18,55.38V12.67h8.33l.67,4.64c1.95-2.75,4.75-5.28,9.17-5.28,6.76,0,11.45,5.34,11.45,15.88s-4.75,15.77-11.57,15.77a11.19,11.19,0,0,1-9-4.07V54Z"/><path class="cls-2" d="M198.43,34.11V28.43c-7.09.75-10.11,2.58-10.11,5.39,0,2,1.34,2.92,3.29,2.92a9.09,9.09,0,0,0,6.82-2.63m-18.89,1.32c0-7.06,5.81-11,18.89-12v-.75c0-2.23-1.22-3.67-4.47-3.67s-6.2,1.61-8.66,3.61l-4.86-5c3-2.81,7.43-5.57,14.81-5.57,8.5,0,12,4.13,12,12v19.2h-8.1l-.68-4.47A13,13,0,0,1,188,43.68c-4.59,0-8.5-3-8.5-8.25"/><path class="cls-2" d="M212.3,54.46l-.67-7.68a19.5,19.5,0,0,0,5.31.74,3.59,3.59,0,0,0,3.8-2.63l.56-1.5-11.13-30L219,12l6.71,20.52h.11l6.6-19.83h8.72L228.62,46.43c-2,5.28-4.75,8.49-10.73,8.49a27.13,27.13,0,0,1-5.59-.46"/><path class="cls-1" d="M21.47,0C9.61,0,0,9.86,0,22S9.61,44,21.47,44s21.46-9.86,21.46-22S33.32,0,21.47,0m-.4,35.1A13.1,13.1,0,0,1,8.14,21.84,13.1,13.1,0,0,1,21.07,8.57H34V21.84A13.1,13.1,0,0,1,21.07,35.1"/><path class="cls-2" d="M34,21.84A13.1,13.1,0,0,1,21.07,35.1,13.1,13.1,0,0,1,8.14,21.84,13.1,13.1,0,0,1,21.07,8.57H34Z"/><path class="cls-1" d="M199.65,49l-3.3,6.43a.2.2,0,0,1-.35,0L192.7,49a.17.17,0,0,0-.16-.11h-1.6a.15.15,0,0,0-.13.22l5.2,10a.19.19,0,0,0,.34,0l5.19-10a.15.15,0,0,0-.12-.22h-1.6a.18.18,0,0,0-.17.11"/><path class="cls-1" d="M201.52,57.55l3.3-6.43a.19.19,0,0,1,.34,0l3.3,6.43a.2.2,0,0,0,.17.11h1.6a.14.14,0,0,0,.12-.22l-5.19-10a.19.19,0,0,0-.34,0l-5.19,10a.15.15,0,0,0,.12.22h1.6a.18.18,0,0,0,.17-.11"/><path class="cls-1" d="M176.86,57.66h-3a.2.2,0,0,1-.19-.2V54.73a.2.2,0,0,1,.19-.2h3c1.41,0,2,.42,2,1.57s-.62,1.56-2,1.56m-3-7.31h2.93c1.08,0,1.63.47,1.63,1.35S177.9,53,176.82,53h-2.93a.19.19,0,0,1-.2-.19V50.54a.2.2,0,0,1,.2-.19m5.1,3.26a2.22,2.22,0,0,0,1.12-2.06,2.7,2.7,0,0,0-2.94-2.69h-4.94a.2.2,0,0,0-.2.2V59a.2.2,0,0,0,.2.19H177c2.37,0,3.61-1,3.61-3.09A2.42,2.42,0,0,0,179,53.61"/><path class="cls-1" d="M187,57.66h-3a.2.2,0,0,1-.19-.2V54.73a.2.2,0,0,1,.19-.2h3c1.41,0,2,.42,2,1.57s-.61,1.56-2,1.56m-3-7.31H187c1.08,0,1.63.47,1.63,1.35S188,53,187,53H184a.19.19,0,0,1-.19-.19V50.54a.2.2,0,0,1,.19-.19m5.11,3.26a2.22,2.22,0,0,0,1.12-2.06,2.7,2.7,0,0,0-2.94-2.69h-4.95a.2.2,0,0,0-.19.2V59a.2.2,0,0,0,.19.19h4.73c2.37,0,3.61-1,3.61-3.09a2.42,2.42,0,0,0-1.57-2.45"/><path class="cls-1" d="M162.65,56.73c0-1.33-.65-2-1.44-2a2.06,2.06,0,0,0-1.47.79v2.38a2.06,2.06,0,0,0,1.49.78c.79,0,1.42-.6,1.42-2m-2.91,1.76,0,.66h-.6V52.39l.62-.1V55a2,2,0,0,1,1.58-.8c1.09,0,2,.82,2,2.51s-.87,2.51-2,2.51a2.11,2.11,0,0,1-1.56-.74"/><path class="cls-1" d="M163.76,60.94l0-.56a2.66,2.66,0,0,0,.68.09c.52,0,.78-.24,1-.76l.2-.53-1.81-4.81.62-.13,1.49,4.16h0l1.46-4.09H168l-2,5.4c-.32.87-.67,1.29-1.58,1.29a2.8,2.8,0,0,1-.63-.06"/></g></g></svg>